<svg xmlns="http://www.w3.org/2000/svg" width="337.691" height="337.667" viewBox="0 0 337.691 337.667">
  <path id="key" d="M189.576,0a86.159,86.159,0,0,0-86.155,86.155,85.042,85.042,0,0,0,6.143,31.266L4.894,222.082C1.87,225.115,0,227.992,0,232.619v25.847A17.621,17.621,0,0,0,17.231,275.7H43.078c4.618,0,7.539-1.852,10.563-4.859L66,258.465H86.19a17.237,17.237,0,0,0,17.231-17.231V224h17.231a17.237,17.237,0,0,0,17.231-17.231V186.577l20.41-20.427a84.933,84.933,0,0,0,31.283,6.16,86.155,86.155,0,0,0,0-172.31Zm0,155.079a68.237,68.237,0,0,1-34.815-9.753l-2.964,2.955-26.1,26.114a17.221,17.221,0,0,0-5.049,12.182v20.195H103.412A17.232,17.232,0,0,0,86.181,224v17.231H66a17.237,17.237,0,0,0-12.182,5.049L41.6,258.5l-24.347-.034-.026-24.554,100.5-100.319a.027.027,0,0,0,.009.017L130.4,120.953a68.205,68.205,0,0,1-9.753-34.807,68.924,68.924,0,1,1,68.933,68.933Zm50.108-84.1a152.572,152.572,0,0,0-34.936-34.927,8.28,8.28,0,0,0-7.6-1.094A38.064,38.064,0,0,0,172.8,59.326a8.2,8.2,0,0,0-.474,2.748,8.306,8.306,0,0,0,1.568,4.851,152.8,152.8,0,0,0,34.919,34.919,8.319,8.319,0,0,0,7.59,1.1,38.04,38.04,0,0,0,24.382-24.365,8.2,8.2,0,0,0,.474-2.748,8.439,8.439,0,0,0-1.577-4.851ZM213.837,94.857a147.513,147.513,0,0,1-32.911-32.679,29.859,29.859,0,0,1,18.8-19.135A144.3,144.3,0,0,1,232.6,75.877C229.233,85.311,223.012,91.514,213.837,94.857Z" transform="matrix(-0.966, -0.259, 0.259, -0.966, 266.336, 337.667)" fill="#fff" opacity="0.06"/>
</svg>
