<svg xmlns="http://www.w3.org/2000/svg" id="Logo" viewBox="0 0 18 18">
  <g id="Group_11" data-name="Group 11" transform="translate(0)">
    <g id="Fill_8" data-name="Fill 8">
      <path id="Path_8" data-name="Path 8" d="M6.851,1.332A3.567,3.567,0,0,0,3.772,3.1L1.811,6.484a3.538,3.538,0,0,0,0,3.541l1.96,3.382a3.567,3.567,0,0,0,3.079,1.77h3.921a3.567,3.567,0,0,0,3.079-1.77l1.96-3.382a3.538,3.538,0,0,0,0-3.541L13.85,3.1a3.567,3.567,0,0,0-3.079-1.77Zm3.921,15.177H6.851a4.91,4.91,0,0,1-4.237-2.436L.653,10.691a4.869,4.869,0,0,1,0-4.873l1.96-3.382A4.909,4.909,0,0,1,6.851,0h3.92a4.909,4.909,0,0,1,4.237,2.437l.008.014,1.952,3.367a4.87,4.87,0,0,1,0,4.873l-1.96,3.382A4.909,4.909,0,0,1,10.771,16.509Z" transform="translate(0 0)" fill="#fff" fill-rule="evenodd"/>
    </g>
    <g id="Fill_9" data-name="Fill 9" transform="translate(2.937 2.72)">
      <path id="Path_9" data-name="Path 9" d="M4.87,1.331a2.54,2.54,0,0,0-2.192,1.26l-1,1.731a2.52,2.52,0,0,0,0,2.521l1,1.732A2.54,2.54,0,0,0,4.87,9.836H6.878A2.541,2.541,0,0,0,9.07,8.576l1-1.732a2.521,2.521,0,0,0,0-2.521l-1-1.732a2.541,2.541,0,0,0-2.192-1.26Zm2.007,9.836H4.87A3.881,3.881,0,0,1,1.52,9.242l-1-1.732a3.849,3.849,0,0,1,0-3.852l1-1.732A3.881,3.881,0,0,1,4.87,0H6.877a3.881,3.881,0,0,1,3.35,1.926l1,1.731a3.849,3.849,0,0,1,0,3.853l-1,1.731A3.881,3.881,0,0,1,6.877,11.168Z" transform="translate(0 0)" fill="#fff" fill-rule="evenodd"/>
    </g>
    <g id="Fill_10" data-name="Fill 10" transform="translate(5.873 5.44)">
      <path id="Path_10" data-name="Path 10" d="M2.889,1.331a1.512,1.512,0,0,0-1.3.75l-.047.082a1.5,1.5,0,0,0,0,1.5l.047.082a1.512,1.512,0,0,0,1.3.75h.095a1.512,1.512,0,0,0,1.3-.75l.047-.082a1.5,1.5,0,0,0,0-1.5L4.288,2.08a1.511,1.511,0,0,0-1.3-.749Zm.095,4.5H2.889A2.853,2.853,0,0,1,.427,4.411L.38,4.33A2.831,2.831,0,0,1,.38,1.5l.047-.081A2.854,2.854,0,0,1,2.889,0h.095A2.853,2.853,0,0,1,5.447,1.416l.046.08a2.831,2.831,0,0,1,0,2.833l-.046.08A2.855,2.855,0,0,1,2.984,5.827Z" transform="translate(0)" fill="#fff" fill-rule="evenodd"/>
    </g>
  </g>
</svg>